<svg xmlns="http://www.w3.org/2000/svg" xmlns:xlink="http://www.w3.org/1999/xlink" width="166.203" height="45.004" viewBox="0 0 166.203 45.004">
  <defs>
    <linearGradient id="linear-gradient" x1="0.5" x2="0.5" y2="1" gradientUnits="objectBoundingBox">
      <stop offset="0" stop-color="#ef3295"/>
      <stop offset="1" stop-color="#c624ff"/>
    </linearGradient>
  </defs>
  <g id="LOGO_NEW" data-name="LOGO NEW" transform="translate(-460.63 -252.763)">
    <path id="Path_1" data-name="Path 1" d="M471.2,271.639a16.168,16.168,0,0,1,4.714-11.375l3.767,3.767a10.544,10.544,0,0,0-.006,14.976l7.492-7.491,7.49,7.49a10.543,10.543,0,0,0-.006-14.975l3.767-3.767a15.782,15.782,0,0,1,0,22.5,15.927,15.927,0,0,1-4.381,3.1l-6.826-6.826-6.883,6.841a16.055,16.055,0,0,1-9.129-14.248Zm34.72-18.876-3.75,3.75a21.826,21.826,0,0,1,6.214,15c-.07,11.472-9.852,17.767-10.52,18.181l3.934,3.934a26.707,26.707,0,0,0,11.956-22.114A27.538,27.538,0,0,0,505.922,252.763ZM466,271.516a21.843,21.843,0,0,1,6.214-15l-3.751-3.75a27.609,27.609,0,0,0-7.833,18.753,26.553,26.553,0,0,0,11.906,22.117l3.943-3.943C475.8,289.268,466.065,282.969,466,271.516ZM477.453,296.2a26.474,26.474,0,0,0,5.919,1.565l3.842-3.751,3.75,3.751a26.332,26.332,0,0,0,5.92-1.565l-9.715-9.716Z" transform="translate(0 0)" fill="url(#linear-gradient)"/>
    <g id="Group_1" data-name="Group 1" transform="translate(518.994 261.65)">
      <path id="Path_2" data-name="Path 2" d="M554.948,265.235h3.378l-3.758,11.118h-3.394l-1.871-7.121-1.935,7.121H543.99l-3.727-11.118h3.521l2,7.723,1.983-7.723h3.219l2,7.708Z" transform="translate(-540.263 -264.981)" fill="#232c51"/>
      <path id="Path_3" data-name="Path 3" d="M566.12,265.235h9.087v2.538h-5.789v1.744h5.25v2.537h-5.25v1.76h5.947v2.537H566.12Z" transform="translate(-547.169 -264.981)" fill="#232c51"/>
      <path id="Path_4" data-name="Path 4" d="M588.606,265.577a3.3,3.3,0,0,1,1.491.975,2.273,2.273,0,0,1,.524,1.491,2.358,2.358,0,0,1-.508,1.491,2.622,2.622,0,0,1-1.379.9,2.69,2.69,0,0,1,1.626.976,2.855,2.855,0,0,1,.61,1.832,2.629,2.629,0,0,1-.539,1.641,3.407,3.407,0,0,1-1.53,1.087,6.426,6.426,0,0,1-2.308.38H580.9V265.235h5.456A6.748,6.748,0,0,1,588.606,265.577Zm-1.649,3.758a.91.91,0,0,0,.286-.706.844.844,0,0,0-.286-.674,1.152,1.152,0,0,0-.777-.246h-2V269.6h2A1.1,1.1,0,0,0,586.957,269.335Zm.23,4.274a.928.928,0,0,0,.372-.778.836.836,0,0,0-.372-.722,1.658,1.658,0,0,0-1.007-.246h-2v2.014h2A1.551,1.551,0,0,0,587.187,273.609Z" transform="translate(-551.117 -264.981)" fill="#232c51"/>
      <path id="Path_5" data-name="Path 5" d="M614.388,265.235h3.377l-3.758,11.118h-3.393l-1.872-7.121-1.934,7.121h-3.379L599.7,265.235h3.52l2,7.723,1.982-7.723h3.22l2,7.708Z" transform="translate(-556.139 -264.981)" fill="#232c51"/>
      <path id="Path_6" data-name="Path 6" d="M633.615,265.7a5.537,5.537,0,0,1,2.172,2.054,5.609,5.609,0,0,1,.785,2.942,5.72,5.72,0,0,1-.785,2.974,5.55,5.55,0,0,1-2.172,2.078,6.778,6.778,0,0,1-6.208,0,5.56,5.56,0,0,1-2.165-2.078,5.719,5.719,0,0,1-.785-2.974,5.608,5.608,0,0,1,.785-2.942,5.547,5.547,0,0,1,2.165-2.054,6.837,6.837,0,0,1,6.208,0Zm-4.409,2.394a2.873,2.873,0,0,0-1,1.087,3.165,3.165,0,0,0-.372,1.53,3.216,3.216,0,0,0,.372,1.538,2.925,2.925,0,0,0,1,1.1,2.458,2.458,0,0,0,1.356.4,2.355,2.355,0,0,0,1.324-.4,2.8,2.8,0,0,0,.959-1.094,3.374,3.374,0,0,0,.349-1.547,3.334,3.334,0,0,0-.349-1.53,2.76,2.76,0,0,0-.951-1.087,2.376,2.376,0,0,0-1.332-.4A2.493,2.493,0,0,0,629.206,268.094Z" transform="translate(-562.75 -264.906)" fill="#232c51"/>
      <path id="Path_7" data-name="Path 7" d="M649.194,276.353l-1.475-3h-1.744v3h-3.3V265.235h5.186a5.241,5.241,0,0,1,3.465,1.031,3.6,3.6,0,0,1,1.229,2.918,4.4,4.4,0,0,1-.484,2.117,3.588,3.588,0,0,1-1.388,1.42l2.252,3.632Zm-3.219-5.535h1.887a1.574,1.574,0,0,0,1.15-.4,1.529,1.529,0,0,0,.4-1.142,1.481,1.481,0,0,0-.4-1.118,1.6,1.6,0,0,0-1.15-.388h-1.887Z" transform="translate(-567.617 -264.981)" fill="#232c51"/>
      <path id="Path_8" data-name="Path 8" d="M669.449,276.353H665.5l-2.6-4.092-1.236,1.364v2.728h-3.3V265.235h3.3v4.457l3.727-4.457H669.2l-4.044,4.5Z" transform="translate(-571.807 -264.981)" fill="#232c51"/>
      <path id="Path_9" data-name="Path 9" d="M680.6,267.839a5.631,5.631,0,0,0-1.744-.365,1.189,1.189,0,0,0-.673.166.549.549,0,0,0-.246.484.757.757,0,0,0,.476.69,8.43,8.43,0,0,0,1.507.532,14.467,14.467,0,0,1,1.935.674,3.573,3.573,0,0,1,1.324,1.039,2.843,2.843,0,0,1,.563,1.84,3.137,3.137,0,0,1-.611,1.958,3.654,3.654,0,0,1-1.65,1.2,6.466,6.466,0,0,1-2.323.4,8.943,8.943,0,0,1-2.863-.484,8,8,0,0,1-2.482-1.324l1.237-2.506a7.4,7.4,0,0,0,2.054,1.229,5.654,5.654,0,0,0,2.086.5,1.47,1.47,0,0,0,.84-.206.669.669,0,0,0,.3-.587.766.766,0,0,0-.492-.705,8.428,8.428,0,0,0-1.522-.516,13.859,13.859,0,0,1-1.919-.626,3.418,3.418,0,0,1-1.316-1.007,2.752,2.752,0,0,1-.555-1.793,3.151,3.151,0,0,1,.571-1.879,3.6,3.6,0,0,1,1.61-1.228,6.306,6.306,0,0,1,2.419-.429,8.928,8.928,0,0,1,2.49.357,8.24,8.24,0,0,1,2.157.944l-1.221,2.537A10.594,10.594,0,0,0,680.6,267.839Z" transform="translate(-575.933 -264.889)" fill="#232c51"/>
    </g>
    <g id="Group_2" data-name="Group 2" transform="translate(520.837 279.05)">
      <path id="Path_10" data-name="Path 10" d="M542.778,288.813h2v4.461h5.207v-4.461h2v10.445h-2V295.02h-5.207v4.238h-2Z" transform="translate(-542.778 -288.679)" fill="#232c51"/>
      <path id="Path_11" data-name="Path 11" d="M561.3,296.9a2.54,2.54,0,0,0,1.88.7,2.466,2.466,0,0,0,1.858-.7,2.671,2.671,0,0,0,.679-1.939v-6.148h2v6.148a4.85,4.85,0,0,1-.552,2.365,3.749,3.749,0,0,1-1.574,1.544,5.118,5.118,0,0,1-2.41.536,5.238,5.238,0,0,1-2.439-.536,3.72,3.72,0,0,1-1.59-1.544,4.848,4.848,0,0,1-.552-2.365v-6.148h2v6.148A2.619,2.619,0,0,0,561.3,296.9Z" transform="translate(-547.003 -288.679)" fill="#232c51"/>
      <path id="Path_12" data-name="Path 12" d="M581.533,288.813h1.94v10.445h-1.9l-5.372-7.192v7.192h-1.954V288.813h1.895l5.386,7.207Z" transform="translate(-551.185 -288.679)" fill="#232c51"/>
      <path id="Path_13" data-name="Path 13" d="M597.123,294.016h1.745v3.969a6.974,6.974,0,0,1-1.939.992,6.788,6.788,0,0,1-2.194.38,5.56,5.56,0,0,1-2.8-.716,5.343,5.343,0,0,1-1.992-1.947,5.229,5.229,0,0,1-.731-2.723,5.074,5.074,0,0,1,.746-2.708A5.376,5.376,0,0,1,592,289.339a5.836,5.836,0,0,1,2.858-.709,6.313,6.313,0,0,1,2.208.4,5.853,5.853,0,0,1,1.88,1.1l-1.134,1.478a4.306,4.306,0,0,0-1.38-.881,4.21,4.21,0,0,0-1.574-.313,3.611,3.611,0,0,0-1.812.47,3.46,3.46,0,0,0-1.306,1.291,3.6,3.6,0,0,0,.007,3.6,3.589,3.589,0,0,0,1.306,1.3,3.553,3.553,0,0,0,1.82.477,4.028,4.028,0,0,0,1.126-.171,5,5,0,0,0,1.127-.485Z" transform="translate(-555.181 -288.63)" fill="#232c51"/>
      <path id="Path_14" data-name="Path 14" d="M612.8,299.258l-.926-2.208h-5.1l-.925,2.208h-2.074l4.581-10.445h2.074l4.521,10.445Zm-5.312-3.924h3.67l-1.82-4.387Z" transform="translate(-559.069 -288.679)" fill="#232c51"/>
      <path id="Path_15" data-name="Path 15" d="M627.285,299.258l-1.806-3.088a3.468,3.468,0,0,1-.373.015h-2.357v3.074h-2V288.813h4.356a4.7,4.7,0,0,1,3.133.94,3.3,3.3,0,0,1,1.1,2.655,3.929,3.929,0,0,1-.53,2.09,3.245,3.245,0,0,1-1.544,1.3l2.3,3.462Zm-4.536-4.834h2.357a2.659,2.659,0,0,0,1.731-.493,1.788,1.788,0,0,0,.6-1.462,1.725,1.725,0,0,0-.6-1.432,2.716,2.716,0,0,0-1.731-.478h-2.357Z" transform="translate(-563.604 -288.679)" fill="#232c51"/>
      <path id="Path_16" data-name="Path 16" d="M643.233,288.813l-3.8,7.028v3.417h-2v-3.342l-3.895-7.1h2.029l2.849,4.909,2.806-4.909Z" transform="translate(-567.018 -288.679)" fill="#232c51"/>
    </g>
  </g>
</svg>
