<svg xmlns="http://www.w3.org/2000/svg" xmlns:xlink="http://www.w3.org/1999/xlink" width="34.002" height="34" viewBox="0 0 34.002 34">
  <defs>
    <clipPath id="clip-path">
      <rect width="34.002" height="34" fill="none"/>
    </clipPath>
  </defs>
  <g id="Repeat_Grid_4" data-name="Repeat Grid 4" clip-path="url(#clip-path)">
    <g transform="translate(-56 -391)">
      <path id="gift" d="M34,11.738a3.989,3.989,0,0,0-3.985-3.985H28.551a11.971,11.971,0,0,0,4.842-6.127l-2.5-.894a9.3,9.3,0,0,1-2.946,4.19A4.666,4.666,0,0,0,20.761.988,12.876,12.876,0,0,0,17,5.773,12.876,12.876,0,0,0,13.241.988,4.666,4.666,0,0,0,6.056,4.9,9.268,9.268,0,0,1,3.11.731l-2.5.894A11.973,11.973,0,0,0,5.451,7.753H3.985A3.989,3.989,0,0,0,0,11.738v5.047H2.656V30.266A3.989,3.989,0,0,0,6.641,34.25h20.72a3.989,3.989,0,0,0,3.985-3.985V16.785H34ZM22.2,3.224a2.009,2.009,0,1,1,2.169,3.383,5.712,5.712,0,0,1-1.6.665,18.905,18.905,0,0,1-2.744.393c-.335.017-.661.024-.97.024h-.032C19.8,6.073,21,3.99,22.2,3.224ZM9.637,6.607a2.009,2.009,0,0,1,2.17-3.383c1.207.774,2.4,2.84,3.176,4.465h-.036c-.289,0-.594-.006-.908-.021A18.783,18.783,0,0,1,11.1,7.236,5.572,5.572,0,0,1,9.637,6.607Zm-6.98,5.131A1.33,1.33,0,0,1,3.985,10.41H15.673v3.719H2.656ZM5.313,30.266V16.785h10.36V31.594H6.641A1.33,1.33,0,0,1,5.313,30.266Zm23.376,0a1.33,1.33,0,0,1-1.328,1.328H18.329V16.785h10.36Zm2.656-16.137H18.329V10.41H30.017a1.33,1.33,0,0,1,1.328,1.328Zm0,0" transform="translate(56 390.75)" fill="#ef3295"/>
    </g>
  </g>
</svg>
